<mxfile host="app.diagrams.net" agent="Mozilla/5.0 (Windows NT 10.0; Win64; x64; rv:136.0) Gecko/20100101 Firefox/136.0" version="26.1.1">
  <diagram name="Page-1" id="qWKnRrf6YM7e62OO8y4M">
    <mxGraphModel>
      <root>
        <mxCell id="0" />
        <mxCell id="1" parent="0" />
        <mxCell id="2" value="本地写收集和统计的脚本" style="whiteSpace=wrap;strokeWidth=2;" vertex="1" parent="1">
          <mxGeometry x="8" y="120" width="236" height="54" as="geometry" />
        </mxCell>
        <mxCell id="3" value="拿到用户现场统计和分析Feko数据" style="rounded=1;arcSize=20;strokeWidth=2" vertex="1" parent="1">
          <mxGeometry x="294" y="108" width="230" height="78" as="geometry" />
        </mxCell>
        <mxCell id="4" value="是否找到重要的参数和数据的大致规律" style="rhombus;strokeWidth=2;whiteSpace=wrap;" vertex="1" parent="1">
          <mxGeometry x="574" y="8" width="278" height="278" as="geometry" />
        </mxCell>
        <mxCell id="5" value="生成假数据" style="whiteSpace=wrap;strokeWidth=2;" vertex="1" parent="1">
          <mxGeometry x="962" y="68" width="140" height="54" as="geometry" />
        </mxCell>
        <mxCell id="6" value="本地编写脚本" style="whiteSpace=wrap;strokeWidth=2;" vertex="1" parent="1">
          <mxGeometry x="1192" y="68" width="156" height="54" as="geometry" />
        </mxCell>
        <mxCell id="7" value="进一步分析和调整脚本" style="whiteSpace=wrap;strokeWidth=2;" vertex="1" parent="1">
          <mxGeometry x="922" y="172" width="220" height="54" as="geometry" />
        </mxCell>
        <mxCell id="8" value="" style="curved=1;startArrow=none;endArrow=block;exitX=1;exitY=0.5;entryX=0;entryY=0.5;" edge="1" parent="1" source="2" target="3">
          <mxGeometry relative="1" as="geometry">
            <Array as="points" />
          </mxGeometry>
        </mxCell>
        <mxCell id="9" value="" style="curved=1;startArrow=none;endArrow=block;exitX=1;exitY=0.5;entryX=0;entryY=0.5;" edge="1" parent="1" source="3" target="4">
          <mxGeometry relative="1" as="geometry">
            <Array as="points" />
          </mxGeometry>
        </mxCell>
        <mxCell id="10" value="是" style="curved=1;startArrow=none;endArrow=block;exitX=1;exitY=0.35;entryX=0;entryY=0.5;" edge="1" parent="1" source="4" target="5">
          <mxGeometry relative="1" as="geometry">
            <Array as="points">
              <mxPoint x="887" y="95" />
            </Array>
          </mxGeometry>
        </mxCell>
        <mxCell id="11" value="" style="curved=1;startArrow=none;endArrow=block;exitX=1;exitY=0.5;entryX=0;entryY=0.5;" edge="1" parent="1" source="5" target="6">
          <mxGeometry relative="1" as="geometry">
            <Array as="points" />
          </mxGeometry>
        </mxCell>
        <mxCell id="12" value="否" style="curved=1;startArrow=none;endArrow=block;exitX=1;exitY=0.65;entryX=0;entryY=0.5;" edge="1" parent="1" source="4" target="7">
          <mxGeometry relative="1" as="geometry">
            <Array as="points">
              <mxPoint x="887" y="199" />
            </Array>
          </mxGeometry>
        </mxCell>
      </root>
    </mxGraphModel>
  </diagram>
</mxfile>
